<svg xmlns="http://www.w3.org/2000/svg" xmlns:xlink="http://www.w3.org/1999/xlink" xml:space="preserve" version="1.1" style="shape-rendering:geometricPrecision;text-rendering:geometricPrecision;image-rendering:optimizeQuality;" viewBox="0 0 846.66 1058.325" x="0px" y="0px" fill-rule="evenodd" clip-rule="evenodd"><defs><style type="text/css">
   
    .fil0 {fill:black;fill-rule:nonzero}
   
  </style></defs><g><path class="fil0" d="M219.55 202.07c-18.31,31.71 -41.67,50.12 -65.38,57.97 22.84,21.73 47.49,47.17 73.21,73.72 61.93,63.91 118.45,122.86 192.71,172.82 -30.13,57.3 -89.1,171.63 -86.61,235.86 0.7,18.11 2.71,17.42 18.8,8.25 61.73,-35.13 136.02,-154.47 172.7,-215.02l59.71 16.86 10.86 -18.81 -127.15 -73.41 21.17 -36.67 127.15 73.41 17.85 -30.92 -182.14 -105.16 21.17 -36.67 182.14 105.16 17.86 -30.94 -127.15 -73.41 21.17 -36.66 127.15 73.41 10.86 -18.81 -122.21 -118.98c-61.46,-34.76 -158.34,-59.08 -245.91,-81.06 -35.85,-9.01 -70.21,-17.64 -100.45,-26.54 5.06,24.46 0.8,53.88 -17.51,85.6zm-137.18 50.02c-38.29,-23.55 -57.9,-77.93 -21.21,-141.47 36.68,-63.54 93.59,-73.74 133.12,-52.36l0.45 -1.05c36.32,15.46 92.52,29.56 153.09,44.78 83.77,21.03 186.22,44.67 261.04,87.87l136.28 132.69c148.15,89.38 -6.97,358.03 -158.44,274.47l-42.42 -11.99c-70.06,113.22 -130.34,179.1 -171.17,202.33 -43.15,24.57 -79.8,7.91 -81.8,-43.31 -1.65,-42.54 20.58,-118.84 74.06,-223.82 -56,-41.07 -114.57,-101.52 -168.36,-157.03 -43.46,-44.86 -83.77,-86.47 -115.32,-110.2l0.68 -0.91zm656.26 118.48l-113.61 196.78c92.25,25.86 182.14,-129.81 113.61,-196.78zm-640.8 -238.78c-46.27,80.14 37.8,130.94 85.05,49.11 46.69,-80.87 -38.37,-129.97 -85.05,-49.11z"/></g><text x="0" y="861.66" fill="#000000" font-size="5px" font-weight="bold" font-family="'Helvetica Neue', Helvetica, Arial-Unicode, Arial, Sans-serif">Created by ZakaUddin</text><text x="0" y="866.66" fill="#000000" font-size="5px" font-weight="bold" font-family="'Helvetica Neue', Helvetica, Arial-Unicode, Arial, Sans-serif">from the Noun Project</text></svg>