<svg xmlns="http://www.w3.org/2000/svg" xmlns:xlink="http://www.w3.org/1999/xlink" version="1.1" x="0px" y="0px" viewBox="0 0 32 40" enable-background="new 0 0 32 32" xml:space="preserve"><g><path d="M23.334,7.601H22.76c-0.383-0.867-0.855-1.67-1.415-2.379c-0.215-0.282-0.446-0.55-0.631-0.732   c-0.394-0.44-0.831-0.834-1.285-1.159c-0.672-0.497-1.393-0.884-2.134-1.147c-1.638-0.599-3.52-0.599-5.138-0.006   c-1.095,0.378-2.125,1.017-3.062,1.899c0,0-0.001,0.001-0.002,0.002S9.091,4.08,9.09,4.081C8.474,4.669,7.924,5.352,7.448,6.118   C5.108,4.742,2.534,5.885,1.376,6.81C1.139,6.999,1,7.286,1,7.591v4.491c0,0.349,0.181,0.672,0.479,0.854   c0.297,0.182,0.667,0.195,0.977,0.037c0.936-0.479,1.766-0.61,2.167-0.337c0.235,0.159,0.758,0.773,0.549,2.963l-1.465,9.56   c-0.002,0.01-0.003,0.02-0.005,0.029L3.62,25.701c-0.008,0.052-0.013,0.104-0.013,0.157v3.409c0,0.553,0.448,1,1,1H24.15   c0.553,0,1-0.447,1-1l-0.002-3.47l-0.032-0.527c0-0.005,0-0.01-0.001-0.014c-0.001-0.018-0.003-0.034-0.005-0.052l-1.02-8.764   l-0.166-2.787c0.933,0.768,1.553,2.158,1.553,3.74v3.727c0,0.553,0.447,1,1,1H30c0.553,0,1-0.447,1-1v-5.185   C31,11.34,27.561,7.601,23.334,7.601z M10.968,5.102c0.26-0.207,0.527-0.385,0.801-0.545c0.064-0.037,0.129-0.071,0.194-0.106   c0.282-0.151,0.568-0.287,0.864-0.389c1.217-0.445,2.569-0.444,3.791,0.003c0.563,0.2,1.109,0.494,1.635,0.882   c0.183,0.131,0.358,0.276,0.527,0.431c0.009,0.008,0.017,0.017,0.024,0.024c-0.739,1.646-2.239,2.717-3.881,2.717   c-1.728,0-3.298-1.202-3.987-2.989C10.946,5.12,10.957,5.11,10.968,5.102z M3,10.634V8.115C3.764,7.65,5.545,6.852,7.064,8.33   c0.23,0.224,0.554,0.324,0.868,0.269C8.248,8.544,8.519,8.342,8.66,8.054C8.902,7.559,9.175,7.1,9.476,6.68   c1.128,2.078,3.181,3.438,5.447,3.438c2.134,0,4.079-1.188,5.245-3.064c0.388,0.586,0.734,1.21,0.992,1.905   c0.311,0.81,0.528,1.711,0.641,2.614l0.3,5.043l0.896,7.713H5.856l1.299-8.483c0.234-2.434-0.24-4.07-1.409-4.864   C5.015,10.484,4.07,10.37,3,10.634z M23.15,28.268H5.607v-1.938H23.15V28.268z M29,20.121h-1.522v-2.727   c0-2.853-1.548-5.312-3.705-6.096c-0.074-0.586-0.185-1.149-0.323-1.692c3.07,0.07,5.551,2.88,5.551,6.33V20.121z"/></g><text x="0" y="47" fill="#000000" font-size="5px" font-weight="bold" font-family="'Helvetica Neue', Helvetica, Arial-Unicode, Arial, Sans-serif">Created by eacreativez</text><text x="0" y="52" fill="#000000" font-size="5px" font-weight="bold" font-family="'Helvetica Neue', Helvetica, Arial-Unicode, Arial, Sans-serif">from the Noun Project</text></svg>