<svg xmlns="http://www.w3.org/2000/svg" viewBox="0 0 32 40" x="0px" y="0px"><title>21-toaster</title><g data-name="21-toaster"><path d="M30,13H27V12a5,5,0,0,0-5-5H6a5,5,0,0,0-5,5V24a1,1,0,0,0,1,1H26a1,1,0,0,0,1-1V15h3a1,1,0,0,0,0-2ZM25,23H3V12A3,3,0,0,1,6,9H22a3,3,0,0,1,3,3Z"/><path d="M20,15a3,3,0,1,0,3,3A3,3,0,0,0,20,15Zm0,4a1,1,0,1,1,1-1A1,1,0,0,1,20,19Z"/><path d="M21,11a1,1,0,0,0-1-1H8a1,1,0,0,0,0,2H20A1,1,0,0,0,21,11Z"/></g><text x="0" y="47" fill="#000000" font-size="5px" font-weight="bold" font-family="'Helvetica Neue', Helvetica, Arial-Unicode, Arial, Sans-serif">Created by Fiki Ahmadi</text><text x="0" y="52" fill="#000000" font-size="5px" font-weight="bold" font-family="'Helvetica Neue', Helvetica, Arial-Unicode, Arial, Sans-serif">from the Noun Project</text></svg>